STARTFONT 2.3
FONT -FontForge-Hanalei-Book-R-Normal--9-90-72-72-P-45-ISO10646-1
SIZE 9 72 72  4
FONTBOUNDINGBOX 12 13 -1 -3
COMMENT "Generated by fontforge, http://fontforge.sourceforge.net"
COMMENT "Copyright (c) 2012 by Brian J. Bonislawsky DBA Astigmatic (AOETI) (astigma@astigmatic.com), with ReservedFont Name "Hanalei""
STARTPROPERTIES 40
FOUNDRY "FontForge"
FAMILY_NAME "Hanalei"
WEIGHT_NAME "Book"
SLANT "R"
SETWIDTH_NAME "Normal"
ADD_STYLE_NAME ""
PIXEL_SIZE 9
POINT_SIZE 90
RESOLUTION_X 72
RESOLUTION_Y 72
SPACING "P"
AVERAGE_WIDTH 45
CHARSET_REGISTRY "ISO10646"
CHARSET_ENCODING "1"
FONTNAME_REGISTRY ""
CHARSET_COLLECTIONS "ISO8859-2 ISO8859-9 ISO8859-4 ISO10646-1"
BITS_PER_PIXEL 4
FONT_NAME "Hanalei-Regular"
FACE_NAME "Hanalei"
COPYRIGHT "Copyright (c) 2012 by Brian J. Bonislawsky DBA Astigmatic (AOETI) (astigma@astigmatic.com), with ReservedFont Name "Hanalei""
FONT_VERSION "1.000"
FONT_ASCENT 7
FONT_DESCENT 2
UNDERLINE_POSITION -1
UNDERLINE_THICKNESS 1
X_HEIGHT 5
CAP_HEIGHT 5
RAW_ASCENT 799
RAW_DESCENT 200
NORM_SPACE 2
RELATIVE_WEIGHT 40
RELATIVE_SETWIDTH 50
SUPERSCRIPT_X 0
SUPERSCRIPT_Y 4
SUPERSCRIPT_SIZE 5
SUBSCRIPT_X 0
SUBSCRIPT_Y 1
SUBSCRIPT_SIZE 5
AVG_LOWERCASE_WIDTH 48
AVG_UPPERCASE_WIDTH 47
ENDPROPERTIES
CHARS 366
STARTCHAR space
ENCODING 32
SWIDTH 200 0
DWIDTH 2 0
BBX 1 1 0 0
BITMAP
00
ENDCHAR
STARTCHAR exclam
ENCODING 33
SWIDTH 257 0
DWIDTH 2 0
BBX 2 8 0 -1
BITMAP
12
44
44
44
43
35
44
01
ENDCHAR
STARTCHAR quotedbl
ENCODING 34
SWIDTH 476 0
DWIDTH 4 0
BBX 4 5 0 2
BITMAP
3434
3333
4444
4444
0101
ENDCHAR
STARTCHAR numbersign
ENCODING 35
SWIDTH 1076 0
DWIDTH 10 0
BBX 10 7 0 0
BITMAP
1311302210
3353341454
5556555423
3317333554
4565555423
3441605440
4515815340
ENDCHAR
STARTCHAR dollar
ENCODING 36
SWIDTH 453 0
DWIDTH 4 0
BBX 4 9 0 -2
BITMAP
0440
0554
5144
6560
1515
3466
4451
0440
0110
ENDCHAR
STARTCHAR percent
ENCODING 37
SWIDTH 889 0
DWIDTH 8 0
BBX 8 7 0 0
BITMAP
12100000
44524200
23444000
63443321
12244535
00034542
00133444
ENDCHAR
STARTCHAR ampersand
ENCODING 38
SWIDTH 627 0
DWIDTH 6 0
BBX 6 8 0 -1
BITMAP
043420
144560
045340
061600
326533
556153
544530
100000
ENDCHAR
STARTCHAR quotesingle
ENCODING 39
SWIDTH 246 0
DWIDTH 2 0
BBX 2 5 0 2
BITMAP
34
33
44
44
01
ENDCHAR
STARTCHAR parenleft
ENCODING 40
SWIDTH 387 0
DWIDTH 3 0
BBX 5 8 -1 -1
BITMAP
003400
014400
043300
134000
064200
015400
004140
000410
ENDCHAR
STARTCHAR parenright
ENCODING 41
SWIDTH 386 0
DWIDTH 3 0
BBX 4 8 0 -1
BITMAP
3500
3140
0540
0314
0563
3350
4400
3200
ENDCHAR
STARTCHAR asterisk
ENCODING 42
SWIDTH 517 0
DWIDTH 5 0
BBX 5 5 0 2
BITMAP
013000
344310
453430
156300
141300
ENDCHAR
STARTCHAR plus
ENCODING 43
SWIDTH 458 0
DWIDTH 4 0
BBX 4 4 0 1
BITMAP
0340
4464
4454
0440
ENDCHAR
STARTCHAR comma
ENCODING 44
SWIDTH 228 0
DWIDTH 2 0
BBX 3 4 -1 -2
BITMAP
0110
0440
2330
0200
ENDCHAR
STARTCHAR hyphen
ENCODING 45
SWIDTH 465 0
DWIDTH 4 0
BBX 4 2 0 2
BITMAP
4354
4344
ENDCHAR
STARTCHAR period
ENCODING 46
SWIDTH 202 0
DWIDTH 2 0
BBX 2 3 0 -1
BITMAP
22
43
10
ENDCHAR
STARTCHAR slash
ENCODING 47
SWIDTH 453 0
DWIDTH 4 0
BBX 4 7 0 0
BITMAP
0010
0045
0334
0431
2540
4220
4500
ENDCHAR
STARTCHAR zero
ENCODING 48
SWIDTH 646 0
DWIDTH 6 0
BBX 6 7 0 0
BITMAP
004100
041610
245350
651414
523654
166150
015400
ENDCHAR
STARTCHAR one
ENCODING 49
SWIDTH 400 0
DWIDTH 4 0
BBX 4 8 0 -1
BITMAP
0230
3613
4733
1403
0433
0313
0423
0010
ENDCHAR
STARTCHAR two
ENCODING 50
SWIDTH 502 0
DWIDTH 5 0
BBX 5 8 0 -1
BITMAP
011000
136300
435220
225530
043400
517410
565330
001100
ENDCHAR
STARTCHAR three
ENCODING 51
SWIDTH 456 0
DWIDTH 4 0
BBX 4 8 0 -1
BITMAP
1100
3244
2755
3560
2526
3554
4343
1000
ENDCHAR
STARTCHAR four
ENCODING 52
SWIDTH 514 0
DWIDTH 5 0
BBX 5 8 0 -1
BITMAP
002200
033510
156510
437510
533230
035400
004400
000100
ENDCHAR
STARTCHAR five
ENCODING 53
SWIDTH 500 0
DWIDTH 5 0
BBX 5 7 0 0
BITMAP
011200
454310
343300
536710
235130
335430
535510
ENDCHAR
STARTCHAR six
ENCODING 54
SWIDTH 520 0
DWIDTH 5 0
BBX 5 8 0 -1
BITMAP
021000
044000
253000
306300
544530
344440
553400
011000
ENDCHAR
STARTCHAR seven
ENCODING 55
SWIDTH 423 0
DWIDTH 4 0
BBX 4 7 0 0
BITMAP
1211
4434
3455
0333
0550
0340
3340
ENDCHAR
STARTCHAR eight
ENCODING 56
SWIDTH 527 0
DWIDTH 5 0
BBX 5 8 0 -1
BITMAP
111100
435640
647230
064300
153500
347220
455560
010000
ENDCHAR
STARTCHAR nine
ENCODING 57
SWIDTH 500 0
DWIDTH 5 0
BBX 5 8 0 -1
BITMAP
001100
354530
448330
524500
063300
043100
144000
011000
ENDCHAR
STARTCHAR colon
ENCODING 58
SWIDTH 245 0
DWIDTH 2 0
BBX 2 6 0 -1
BITMAP
33
34
00
22
34
01
ENDCHAR
STARTCHAR semicolon
ENCODING 59
SWIDTH 270 0
DWIDTH 2 0
BBX 3 7 -1 -2
BITMAP
0240
0240
0000
0010
0340
1330
0200
ENDCHAR
STARTCHAR less
ENCODING 60
SWIDTH 445 0
DWIDTH 4 0
BBX 4 6 0 0
BITMAP
0032
1534
4240
6362
0434
0021
ENDCHAR
STARTCHAR equal
ENCODING 61
SWIDTH 484 0
DWIDTH 4 0
BBX 4 5 0 1
BITMAP
1111
4255
2334
4355
3344
ENDCHAR
STARTCHAR greater
ENCODING 62
SWIDTH 445 0
DWIDTH 4 0
BBX 4 6 0 0
BITMAP
2300
4351
0424
2636
4340
1200
ENDCHAR
STARTCHAR question
ENCODING 63
SWIDTH 455 0
DWIDTH 4 0
BBX 4 8 0 -1
BITMAP
2100
3253
2455
1524
3330
1710
3400
0100
ENDCHAR
STARTCHAR at
ENCODING 64
SWIDTH 812 0
DWIDTH 7 0
BBX 7 8 0 -1
BITMAP
13434400
54434530
44444530
33354540
45545720
34443560
36430000
00220000
ENDCHAR
STARTCHAR A
ENCODING 65
SWIDTH 507 0
DWIDTH 5 0
BBX 5 7 0 0
BITMAP
021000
035200
253300
307400
547440
345350
550540
ENDCHAR
STARTCHAR B
ENCODING 66
SWIDTH 533 0
DWIDTH 5 0
BBX 5 8 0 -1
BITMAP
243000
633430
556440
334420
556230
456460
714300
030000
ENDCHAR
STARTCHAR C
ENCODING 67
SWIDTH 515 0
DWIDTH 5 0
BBX 5 8 0 -1
BITMAP
133100
303340
466320
321000
550000
445330
565330
010000
ENDCHAR
STARTCHAR D
ENCODING 68
SWIDTH 520 0
DWIDTH 5 0
BBX 5 8 0 -1
BITMAP
142000
443200
554510
342340
556450
342500
464000
011000
ENDCHAR
STARTCHAR E
ENCODING 69
SWIDTH 490 0
DWIDTH 4 0
BBX 5 7 0 0
BITMAP
133210
434130
553310
333300
553300
345410
455420
ENDCHAR
STARTCHAR F
ENCODING 70
SWIDTH 475 0
DWIDTH 4 0
BBX 5 7 0 0
BITMAP
133210
434130
553310
333300
553300
340000
450000
ENDCHAR
STARTCHAR G
ENCODING 71
SWIDTH 557 0
DWIDTH 5 0
BBX 5 8 0 -1
BITMAP
133100
303340
466320
321430
550440
445540
565550
010000
ENDCHAR
STARTCHAR H
ENCODING 72
SWIDTH 611 0
DWIDTH 6 0
BBX 6 7 0 0
BITMAP
130230
431430
550550
330351
555613
345551
450550
ENDCHAR
STARTCHAR I
ENCODING 73
SWIDTH 266 0
DWIDTH 2 0
BBX 3 7 0 0
BITMAP
1300
4310
5500
3400
5500
3300
4500
ENDCHAR
STARTCHAR J
ENCODING 74
SWIDTH 484 0
DWIDTH 4 0
BBX 5 8 -1 -1
BITMAP
000130
000330
000550
021330
134550
043630
004360
001200
ENDCHAR
STARTCHAR K
ENCODING 75
SWIDTH 541 0
DWIDTH 5 0
BBX 5 7 0 0
BITMAP
130100
431440
555340
341500
556400
345230
450540
ENDCHAR
STARTCHAR L
ENCODING 76
SWIDTH 467 0
DWIDTH 4 0
BBX 5 7 0 0
BITMAP
130000
431000
550000
340000
550000
345320
455330
ENDCHAR
STARTCHAR M
ENCODING 77
SWIDTH 733 0
DWIDTH 7 0
BBX 7 7 0 0
BITMAP
03103100
03612600
43653600
32564500
55456320
34445430
54343540
ENDCHAR
STARTCHAR N
ENCODING 78
SWIDTH 598 0
DWIDTH 5 0
BBX 6 7 0 0
BITMAP
131130
434331
555650
341730
555550
334160
451580
ENDCHAR
STARTCHAR O
ENCODING 79
SWIDTH 612 0
DWIDTH 6 0
BBX 6 8 0 -1
BITMAP
133110
303380
466670
321430
550442
445462
555372
010000
ENDCHAR
STARTCHAR P
ENCODING 80
SWIDTH 513 0
DWIDTH 5 0
BBX 5 8 0 -1
BITMAP
142000
624430
565440
346240
553200
341000
440000
010000
ENDCHAR
STARTCHAR Q
ENCODING 81
SWIDTH 612 0
DWIDTH 6 0
BBX 6 9 0 -2
BITMAP
133110
303380
466670
321430
550442
445462
555472
013400
003100
ENDCHAR
STARTCHAR R
ENCODING 82
SWIDTH 532 0
DWIDTH 5 0
BBX 5 8 0 -1
BITMAP
041000
614420
564440
447440
554400
345330
440440
120100
ENDCHAR
STARTCHAR S
ENCODING 83
SWIDTH 442 0
DWIDTH 4 0
BBX 4 8 0 -1
BITMAP
1233
6445
4341
2540
0443
3534
4554
1000
ENDCHAR
STARTCHAR T
ENCODING 84
SWIDTH 453 0
DWIDTH 4 0
BBX 6 7 -1 0
BITMAP
033330
130321
036630
005400
005500
003300
005500
ENDCHAR
STARTCHAR U
ENCODING 85
SWIDTH 583 0
DWIDTH 5 0
BBX 5 8 0 -1
BITMAP
130220
403340
541540
330330
550550
345470
555580
120000
ENDCHAR
STARTCHAR V
ENCODING 86
SWIDTH 506 0
DWIDTH 5 0
BBX 5 7 0 -1
BITMAP
540530
443330
535310
337400
033300
055300
011000
ENDCHAR
STARTCHAR W
ENCODING 87
SWIDTH 735 0
DWIDTH 7 0
BBX 7 8 0 -1
BITMAP
00000100
54242340
44727230
53456310
33666500
15173400
07454400
01101100
ENDCHAR
STARTCHAR X
ENCODING 88
SWIDTH 483 0
DWIDTH 4 0
BBX 5 6 0 0
BITMAP
543420
436300
182200
155400
424310
443420
ENDCHAR
STARTCHAR Y
ENCODING 89
SWIDTH 484 0
DWIDTH 4 0
BBX 6 7 -1 0
BITMAP
000010
144134
044732
024340
005330
004300
014300
ENDCHAR
STARTCHAR Z
ENCODING 90
SWIDTH 458 0
DWIDTH 4 0
BBX 5 7 0 0
BITMAP
122200
314510
256600
042200
254000
426300
554400
ENDCHAR
STARTCHAR bracketleft
ENCODING 91
SWIDTH 420 0
DWIDTH 4 0
BBX 4 8 0 -1
BITMAP
1534
4433
5400
4300
5500
3300
4534
1432
ENDCHAR
STARTCHAR backslash
ENCODING 92
SWIDTH 453 0
DWIDTH 4 0
BBX 4 7 0 0
BITMAP
0100
5400
4340
1340
0442
0224
0044
ENDCHAR
STARTCHAR bracketright
ENCODING 93
SWIDTH 420 0
DWIDTH 4 0
BBX 4 8 0 -1
BITMAP
4350
3523
0234
0223
0244
0123
5434
3340
ENDCHAR
STARTCHAR asciicircum
ENCODING 94
SWIDTH 353 0
DWIDTH 3 0
BBX 3 3 0 3
BITMAP
1620
4530
2130
ENDCHAR
STARTCHAR underscore
ENCODING 95
SWIDTH 499 0
DWIDTH 4 0
BBX 5 3 0 -3
BITMAP
233300
403310
233300
ENDCHAR
STARTCHAR grave
ENCODING 96
SWIDTH 183 0
DWIDTH 2 0
BBX 2 3 0 6
BITMAP
42
33
11
ENDCHAR
STARTCHAR a
ENCODING 97
SWIDTH 507 0
DWIDTH 5 0
BBX 5 7 0 0
BITMAP
021000
035200
253300
307400
547440
345350
550540
ENDCHAR
STARTCHAR b
ENCODING 98
SWIDTH 533 0
DWIDTH 5 0
BBX 5 8 0 -1
BITMAP
243000
633430
556440
334420
556230
456460
714300
030000
ENDCHAR
STARTCHAR c
ENCODING 99
SWIDTH 515 0
DWIDTH 5 0
BBX 5 8 0 -1
BITMAP
133100
303340
466320
321000
550000
445330
565330
010000
ENDCHAR
STARTCHAR d
ENCODING 100
SWIDTH 520 0
DWIDTH 5 0
BBX 5 8 0 -1
BITMAP
142000
443200
554510
342340
556450
342500
464000
011000
ENDCHAR
STARTCHAR e
ENCODING 101
SWIDTH 490 0
DWIDTH 4 0
BBX 5 7 0 0
BITMAP
133210
434130
553310
333300
553300
345410
455420
ENDCHAR
STARTCHAR f
ENCODING 102
SWIDTH 475 0
DWIDTH 4 0
BBX 5 7 0 0
BITMAP
133210
434130
553310
333300
553300
340000
450000
ENDCHAR
STARTCHAR g
ENCODING 103
SWIDTH 557 0
DWIDTH 5 0
BBX 5 8 0 -1
BITMAP
133100
303340
466320
321430
550440
445540
565550
010000
ENDCHAR
STARTCHAR h
ENCODING 104
SWIDTH 611 0
DWIDTH 6 0
BBX 6 7 0 0
BITMAP
130230
431430
550550
330351
555613
345551
450550
ENDCHAR
STARTCHAR i
ENCODING 105
SWIDTH 266 0
DWIDTH 2 0
BBX 3 7 0 0
BITMAP
1300
4310
5500
3400
5500
3300
4500
ENDCHAR
STARTCHAR j
ENCODING 106
SWIDTH 482 0
DWIDTH 4 0
BBX 5 8 -1 -1
BITMAP
000130
000330
000550
021330
134550
043630
004360
001200
ENDCHAR
STARTCHAR k
ENCODING 107
SWIDTH 541 0
DWIDTH 5 0
BBX 5 7 0 0
BITMAP
130100
431440
555340
341500
556400
345230
450540
ENDCHAR
STARTCHAR l
ENCODING 108
SWIDTH 467 0
DWIDTH 4 0
BBX 5 7 0 0
BITMAP
130000
431000
550000
340000
550000
345320
455330
ENDCHAR
STARTCHAR m
ENCODING 109
SWIDTH 733 0
DWIDTH 7 0
BBX 7 7 0 0
BITMAP
03103100
03612600
43653600
32564500
55456320
34445430
54343540
ENDCHAR
STARTCHAR n
ENCODING 110
SWIDTH 598 0
DWIDTH 5 0
BBX 6 7 0 0
BITMAP
131130
434331
555650
341730
555550
334160
451580
ENDCHAR
STARTCHAR o
ENCODING 111
SWIDTH 612 0
DWIDTH 6 0
BBX 6 8 0 -1
BITMAP
133110
303380
466670
321430
550442
445462
555372
010000
ENDCHAR
STARTCHAR p
ENCODING 112
SWIDTH 513 0
DWIDTH 5 0
BBX 5 8 0 -1
BITMAP
142000
624430
565440
346240
553200
341000
440000
010000
ENDCHAR
STARTCHAR q
ENCODING 113
SWIDTH 612 0
DWIDTH 6 0
BBX 6 9 0 -2
BITMAP
133110
303380
466670
321430
550442
445462
555472
013400
003100
ENDCHAR
STARTCHAR r
ENCODING 114
SWIDTH 532 0
DWIDTH 5 0
BBX 5 8 0 -1
BITMAP
041000
614420
564440
447440
554400
345330
440440
120100
ENDCHAR
STARTCHAR s
ENCODING 115
SWIDTH 442 0
DWIDTH 4 0
BBX 4 8 0 -1
BITMAP
1233
6445
4341
2540
0443
3534
4554
1000
ENDCHAR
STARTCHAR t
ENCODING 116
SWIDTH 453 0
DWIDTH 4 0
BBX 6 7 -1 0
BITMAP
033330
130321
036630
005400
005500
003300
005500
ENDCHAR
STARTCHAR u
ENCODING 117
SWIDTH 583 0
DWIDTH 5 0
BBX 5 8 0 -1
BITMAP
130220
403340
541540
330330
550550
345470
555580
120000
ENDCHAR
STARTCHAR v
ENCODING 118
SWIDTH 506 0
DWIDTH 5 0
BBX 5 7 0 -1
BITMAP
540530
443330
535310
337400
033300
055300
011000
ENDCHAR
STARTCHAR w
ENCODING 119
SWIDTH 735 0
DWIDTH 7 0
BBX 7 8 0 -1
BITMAP
00000100
54242340
44727230
53456310
33666500
15173400
07454400
01101100
ENDCHAR
STARTCHAR x
ENCODING 120
SWIDTH 483 0
DWIDTH 4 0
BBX 5 6 0 0
BITMAP
543420
436300
182200
155400
424310
443420
ENDCHAR
STARTCHAR y
ENCODING 121
SWIDTH 484 0
DWIDTH 4 0
BBX 6 7 -1 0
BITMAP
000010
144134
044732
024340
005330
004300
014300
ENDCHAR
STARTCHAR z
ENCODING 122
SWIDTH 458 0
DWIDTH 4 0
BBX 5 7 0 0
BITMAP
122200
314510
256600
042200
254000
426300
554400
ENDCHAR
STARTCHAR braceleft
ENCODING 123
SWIDTH 473 0
DWIDTH 4 0
BBX 5 8 0 -1
BITMAP
044410
034410
053100
535300
354200
055000
225410
033400
ENDCHAR
STARTCHAR bar
ENCODING 124
SWIDTH 263 0
DWIDTH 2 0
BBX 2 8 0 -1
BITMAP
35
33
55
33
55
34
33
23
ENDCHAR
STARTCHAR braceright
ENCODING 125
SWIDTH 473 0
DWIDTH 4 0
BBX 5 8 0 -1
BITMAP
444100
352200
046000
173330
055310
045100
441400
334000
ENDCHAR
STARTCHAR asciitilde
ENCODING 126
SWIDTH 456 0
DWIDTH 4 0
BBX 4 3 0 2
BITMAP
0423
3454
3451
ENDCHAR
STARTCHAR nonbreakingspace
ENCODING 160
SWIDTH 200 0
DWIDTH 2 0
BBX 1 1 0 0
BITMAP
00
ENDCHAR
STARTCHAR exclamdown
ENCODING 161
SWIDTH 259 0
DWIDTH 2 0
BBX 2 8 0 -1
BITMAP
12
34
25
33
46
33
44
01
ENDCHAR
STARTCHAR cent
ENCODING 162
SWIDTH 480 0
DWIDTH 4 0
BBX 5 9 0 -2
BITMAP
034100
045500
624410
572000
341000
556400
155500
034000
001000
ENDCHAR
STARTCHAR sterling
ENCODING 163
SWIDTH 594 0
DWIDTH 5 0
BBX 6 7 0 0
BITMAP
001000
053330
055330
465400
465500
034541
055441
ENDCHAR
STARTCHAR currency
ENCODING 164
SWIDTH 640 0
DWIDTH 6 0
BBX 6 6 0 0
BITMAP
344443
366252
315533
363661
435544
110120
ENDCHAR
STARTCHAR yen
ENCODING 165
SWIDTH 575 0
DWIDTH 5 0
BBX 5 6 0 0
BITMAP
440450
326440
074320
325340
164520
045000
ENDCHAR
STARTCHAR brokenbar
ENCODING 166
SWIDTH 258 0
DWIDTH 2 0
BBX 2 8 0 -1
BITMAP
45
55
33
34
34
45
33
45
ENDCHAR
STARTCHAR section
ENCODING 167
SWIDTH 474 0
DWIDTH 4 0
BBX 4 8 0 -1
BITMAP
1233
5234
4365
2554
5555
4645
3355
1000
ENDCHAR
STARTCHAR dieresis
ENCODING 168
SWIDTH 351 0
DWIDTH 3 0
BBX 4 3 0 6
BITMAP
1010
4641
2120
ENDCHAR
STARTCHAR copyright
ENCODING 169
SWIDTH 719 0
DWIDTH 6 0
BBX 7 8 0 -1
BITMAP
13434300
54435520
44434520
33643310
44644420
34565510
56544510
00000100
ENDCHAR
STARTCHAR ordfeminine
ENCODING 170
SWIDTH 455 0
DWIDTH 4 0
BBX 5 7 0 0
BITMAP
022000
071300
432500
565400
635310
454500
333300
ENDCHAR
STARTCHAR guillemotleft
ENCODING 171
SWIDTH 689 0
DWIDTH 6 0
BBX 6 5 0 1
BITMAP
001001
134134
433432
534534
034034
ENDCHAR
STARTCHAR logicalnot
ENCODING 172
SWIDTH 591 0
DWIDTH 5 0
BBX 5 4 0 0
BITMAP
435450
434530
000330
000240
ENDCHAR
STARTCHAR uni00AD
ENCODING 173
SWIDTH 465 0
DWIDTH 4 0
BBX 4 2 0 2
BITMAP
4354
4344
ENDCHAR
STARTCHAR registered
ENCODING 174
SWIDTH 719 0
DWIDTH 6 0
BBX 7 8 0 -1
BITMAP
13434300
54435520
44433520
33544310
44422420
34644510
56544510
00000100
ENDCHAR
STARTCHAR macron
ENCODING 175
SWIDTH 263 0
DWIDTH 2 0
BBX 3 2 0 6
BITMAP
5330
2210
ENDCHAR
STARTCHAR degree
ENCODING 176
SWIDTH 333 0
DWIDTH 3 0
BBX 3 3 0 3
BITMAP
3630
5650
3320
ENDCHAR
STARTCHAR plusminus
ENCODING 177
SWIDTH 464 0
DWIDTH 4 0
BBX 4 6 0 -1
BITMAP
0340
4464
4454
0440
3354
4355
ENDCHAR
STARTCHAR twosuperior
ENCODING 178
SWIDTH 324 0
DWIDTH 3 0
BBX 3 5 0 2
BITMAP
2110
4330
2320
4430
1210
ENDCHAR
STARTCHAR threesuperior
ENCODING 179
SWIDTH 332 0
DWIDTH 3 0
BBX 3 5 0 2
BITMAP
2110
4350
2520
3450
2200
ENDCHAR
STARTCHAR acute
ENCODING 180
SWIDTH 202 0
DWIDTH 2 0
BBX 2 3 0 6
BITMAP
23
43
20
ENDCHAR
STARTCHAR mu
ENCODING 181
SWIDTH 582 0
DWIDTH 5 0
BBX 5 9 0 -2
BITMAP
010210
423440
321550
541430
330550
455460
335570
440110
110000
ENDCHAR
STARTCHAR paragraph
ENCODING 182
SWIDTH 556 0
DWIDTH 5 0
BBX 5 8 0 -1
BITMAP
002410
352450
454740
427330
033540
002340
002340
000200
ENDCHAR
STARTCHAR periodcentered
ENCODING 183
SWIDTH 215 0
DWIDTH 2 0
BBX 2 2 0 2
BITMAP
44
22
ENDCHAR
STARTCHAR cedilla
ENCODING 184
SWIDTH 237 0
DWIDTH 2 0
BBX 3 3 0 -2
BITMAP
0510
2510
5500
ENDCHAR
STARTCHAR onesuperior
ENCODING 185
SWIDTH 286 0
DWIDTH 3 0
BBX 3 5 0 2
BITMAP
0200
3320
3330
0230
0200
ENDCHAR
STARTCHAR ordmasculine
ENCODING 186
SWIDTH 476 0
DWIDTH 4 0
BBX 5 7 0 0
BITMAP
122100
326700
555210
346600
544400
344300
333400
ENDCHAR
STARTCHAR guillemotright
ENCODING 187
SWIDTH 689 0
DWIDTH 6 0
BBX 6 5 0 1
BITMAP
010010
432432
244244
326336
340340
ENDCHAR
STARTCHAR onequarter
ENCODING 188
SWIDTH 790 0
DWIDTH 7 0
BBX 7 7 0 0
BITMAP
02000000
22333000
34343000
02521210
02442340
00335450
00332450
ENDCHAR
STARTCHAR onehalf
ENCODING 189
SWIDTH 771 0
DWIDTH 7 0
BBX 7 7 0 0
BITMAP
02000000
22333000
34343000
02523210
02443330
00332320
00335540
ENDCHAR
STARTCHAR threequarters
ENCODING 190
SWIDTH 817 0
DWIDTH 7 0
BBX 8 7 0 0
BITMAP
21100000
43534000
25243000
34533120
12244351
00334451
00231361
ENDCHAR
STARTCHAR questiondown
ENCODING 191
SWIDTH 455 0
DWIDTH 4 0
BBX 4 8 0 -1
BITMAP
0031
0043
0142
0243
5351
4443
2534
0001
ENDCHAR
STARTCHAR Agrave
ENCODING 192
SWIDTH 507 0
DWIDTH 5 0
BBX 5 9 0 0
BITMAP
043000
033000
033000
035200
253300
307400
547440
345350
550540
ENDCHAR
STARTCHAR Aacute
ENCODING 193
SWIDTH 507 0
DWIDTH 5 0
BBX 5 9 0 0
BITMAP
002300
004300
024000
035200
253300
307400
547440
345350
550540
ENDCHAR
STARTCHAR Acircumflex
ENCODING 194
SWIDTH 507 0
DWIDTH 5 0
BBX 5 9 0 0
BITMAP
037100
055300
042100
035200
253300
307400
547440
345350
550540
ENDCHAR
STARTCHAR Atilde
ENCODING 195
SWIDTH 507 0
DWIDTH 5 0
BBX 5 9 0 0
BITMAP
047520
334600
043100
035200
253300
307400
547440
345350
550540
ENDCHAR
STARTCHAR Adieresis
ENCODING 196
SWIDTH 507 0
DWIDTH 5 0
BBX 5 9 0 0
BITMAP
010100
146500
052200
035200
253300
307400
547440
345350
550540
ENDCHAR
STARTCHAR Aring
ENCODING 197
SWIDTH 507 0
DWIDTH 5 0
BBX 5 10 0 0
BITMAP
013100
045300
066400
043100
035200
253300
307400
547440
345350
550540
ENDCHAR
STARTCHAR AE
ENCODING 198
SWIDTH 797 0
DWIDTH 7 0
BBX 9 7 -1 0
BITMAP
0000233300
0005534220
0042753300
0044443300
0335653200
0344445400
1440554500
ENDCHAR
STARTCHAR Ccedilla
ENCODING 199
SWIDTH 515 0
DWIDTH 5 0
BBX 5 9 0 -2
BITMAP
133100
303340
466320
321000
550000
445330
565430
034300
044100
ENDCHAR
STARTCHAR Egrave
ENCODING 200
SWIDTH 490 0
DWIDTH 4 0
BBX 5 9 0 0
BITMAP
033000
034000
135210
434130
553310
333300
553300
345410
455420
ENDCHAR
STARTCHAR Eacute
ENCODING 201
SWIDTH 490 0
DWIDTH 4 0
BBX 5 9 0 0
BITMAP
003200
014200
135210
434130
553310
333300
553300
345410
455420
ENDCHAR
STARTCHAR Ecircumflex
ENCODING 202
SWIDTH 490 0
DWIDTH 4 0
BBX 5 9 0 0
BITMAP
037100
055300
154410
434130
553310
333300
553300
345410
455420
ENDCHAR
STARTCHAR Edieresis
ENCODING 203
SWIDTH 490 0
DWIDTH 4 0
BBX 5 9 0 0
BITMAP
010100
246500
264410
434130
553310
333300
553300
345410
455420
ENDCHAR
STARTCHAR Igrave
ENCODING 204
SWIDTH 266 0
DWIDTH 2 0
BBX 3 9 0 0
BITMAP
4200
3300
2400
4310
5500
3400
5500
3300
4500
ENDCHAR
STARTCHAR Iacute
ENCODING 205
SWIDTH 266 0
DWIDTH 2 0
BBX 3 9 0 0
BITMAP
0230
0520
1500
4310
5500
3400
5500
3300
4500
ENDCHAR
STARTCHAR Icircumflex
ENCODING 206
SWIDTH 266 0
DWIDTH 2 0
BBX 3 9 0 0
BITMAP
3710
5530
3410
4310
5500
3400
5500
3300
4500
ENDCHAR
STARTCHAR Idieresis
ENCODING 207
SWIDTH 266 0
DWIDTH 2 0
BBX 4 9 -1 0
BITMAP
0101
3454
0441
0431
0550
0340
0550
0330
0450
ENDCHAR
STARTCHAR Eth
ENCODING 208
SWIDTH 669 0
DWIDTH 6 0
BBX 8 8 -1 -1
BITMAP
00043000
00262300
00346430
14344441
04567461
00305410
00336100
00001000
ENDCHAR
STARTCHAR Ntilde
ENCODING 209
SWIDTH 598 0
DWIDTH 5 0
BBX 6 9 0 0
BITMAP
026640
045430
151430
434331
555650
341730
555550
334160
451580
ENDCHAR
STARTCHAR Ograve
ENCODING 210
SWIDTH 612 0
DWIDTH 6 0
BBX 6 10 0 -1
BITMAP
015000
003300
134110
303380
466670
321430
550442
445462
555372
010000
ENDCHAR
STARTCHAR Oacute
ENCODING 211
SWIDTH 612 0
DWIDTH 6 0
BBX 6 10 0 -1
BITMAP
000410
003410
134210
303380
466670
321430
550442
445462
555372
010000
ENDCHAR
STARTCHAR Ocircumflex
ENCODING 212
SWIDTH 612 0
DWIDTH 6 0
BBX 6 10 0 -1
BITMAP
005600
034420
144310
303380
466670
321430
550442
445462
555372
010000
ENDCHAR
STARTCHAR Otilde
ENCODING 213
SWIDTH 612 0
DWIDTH 6 0
BBX 6 10 0 -1
BITMAP
016650
045430
153410
303380
466670
321430
550442
445462
555372
010000
ENDCHAR
STARTCHAR Odieresis
ENCODING 214
SWIDTH 612 0
DWIDTH 6 0
BBX 6 10 0 -1
BITMAP
011100
045430
154310
303380
466670
321430
550442
445462
555372
010000
ENDCHAR
STARTCHAR multiply
ENCODING 215
SWIDTH 421 0
DWIDTH 4 0
BBX 4 4 0 1
BITMAP
2332
4153
4533
3342
ENDCHAR
STARTCHAR Oslash
ENCODING 216
SWIDTH 612 0
DWIDTH 6 0
BBX 6 8 0 -1
BITMAP
133110
303540
468470
325440
563742
436562
617372
130000
ENDCHAR
STARTCHAR Ugrave
ENCODING 217
SWIDTH 583 0
DWIDTH 5 0
BBX 5 10 0 -1
BITMAP
024000
015100
132220
403340
541540
330330
550550
345470
555580
120000
ENDCHAR
STARTCHAR Uacute
ENCODING 218
SWIDTH 583 0
DWIDTH 5 0
BBX 5 10 0 -1
BITMAP
001400
004400
132220
403340
541540
330330
550550
345470
555580
120000
ENDCHAR
STARTCHAR Ucircumflex
ENCODING 219
SWIDTH 583 0
DWIDTH 5 0
BBX 5 10 0 -1
BITMAP
026300
046400
151420
403340
541540
330330
550550
345470
555580
120000
ENDCHAR
STARTCHAR Udieresis
ENCODING 220
SWIDTH 583 0
DWIDTH 5 0
BBX 5 10 0 -1
BITMAP
010100
046410
151520
403340
541540
330330
550550
345470
555580
120000
ENDCHAR
STARTCHAR Yacute
ENCODING 221
SWIDTH 484 0
DWIDTH 4 0
BBX 6 8 -1 0
BITMAP
000320
002430
144334
044732
024340
005330
004300
014300
ENDCHAR
STARTCHAR Thorn
ENCODING 222
SWIDTH 520 0
DWIDTH 5 0
BBX 5 8 0 -1
BITMAP
120000
463000
733430
345540
546230
333200
441000
010000
ENDCHAR
STARTCHAR germandbls
ENCODING 223
SWIDTH 884 0
DWIDTH 8 0
BBX 8 8 0 -1
BITMAP
12331233
64456435
43414341
25402540
04430442
35343534
45544554
10001000
ENDCHAR
STARTCHAR agrave
ENCODING 224
SWIDTH 507 0
DWIDTH 5 0
BBX 5 9 0 0
BITMAP
043000
033000
033000
035200
253300
307400
547440
345350
550540
ENDCHAR
STARTCHAR aacute
ENCODING 225
SWIDTH 507 0
DWIDTH 5 0
BBX 5 9 0 0
BITMAP
002300
004300
024000
035200
253300
307400
547440
345350
550540
ENDCHAR
STARTCHAR acircumflex
ENCODING 226
SWIDTH 507 0
DWIDTH 5 0
BBX 5 9 0 0
BITMAP
037100
055300
042100
035200
253300
307400
547440
345350
550540
ENDCHAR
STARTCHAR atilde
ENCODING 227
SWIDTH 507 0
DWIDTH 5 0
BBX 5 9 0 0
BITMAP
047520
334600
043100
035200
253300
307400
547440
345350
550540
ENDCHAR
STARTCHAR adieresis
ENCODING 228
SWIDTH 507 0
DWIDTH 5 0
BBX 5 9 0 0
BITMAP
010100
146500
052200
035200
253300
307400
547440
345350
550540
ENDCHAR
STARTCHAR aring
ENCODING 229
SWIDTH 507 0
DWIDTH 5 0
BBX 5 10 0 0
BITMAP
013100
045300
066400
043100
035200
253300
307400
547440
345350
550540
ENDCHAR
STARTCHAR ae
ENCODING 230
SWIDTH 797 0
DWIDTH 7 0
BBX 9 7 -1 0
BITMAP
0000233300
0005534220
0042753300
0044443300
0335653200
0344445400
1440554500
ENDCHAR
STARTCHAR ccedilla
ENCODING 231
SWIDTH 515 0
DWIDTH 5 0
BBX 5 9 0 -2
BITMAP
133100
303340
466320
321000
550000
445330
565430
034300
044100
ENDCHAR
STARTCHAR egrave
ENCODING 232
SWIDTH 490 0
DWIDTH 4 0
BBX 5 9 0 0
BITMAP
033000
034000
135210
434130
553310
333300
553300
345410
455420
ENDCHAR
STARTCHAR eacute
ENCODING 233
SWIDTH 490 0
DWIDTH 4 0
BBX 5 9 0 0
BITMAP
003200
014200
135210
434130
553310
333300
553300
345410
455420
ENDCHAR
STARTCHAR ecircumflex
ENCODING 234
SWIDTH 490 0
DWIDTH 4 0
BBX 5 9 0 0
BITMAP
037100
055300
154410
434130
553310
333300
553300
345410
455420
ENDCHAR
STARTCHAR edieresis
ENCODING 235
SWIDTH 490 0
DWIDTH 4 0
BBX 5 9 0 0
BITMAP
010100
246500
264410
434130
553310
333300
553300
345410
455420
ENDCHAR
STARTCHAR igrave
ENCODING 236
SWIDTH 266 0
DWIDTH 2 0
BBX 3 9 0 0
BITMAP
4200
3300
2400
4310
5500
3400
5500
3300
4500
ENDCHAR
STARTCHAR iacute
ENCODING 237
SWIDTH 266 0
DWIDTH 2 0
BBX 3 9 0 0
BITMAP
0230
0520
1500
4310
5500
3400
5500
3300
4500
ENDCHAR
STARTCHAR icircumflex
ENCODING 238
SWIDTH 266 0
DWIDTH 2 0
BBX 3 9 0 0
BITMAP
3710
5530
3410
4310
5500
3400
5500
3300
4500
ENDCHAR
STARTCHAR idieresis
ENCODING 239
SWIDTH 266 0
DWIDTH 2 0
BBX 4 9 -1 0
BITMAP
0101
3454
0441
0431
0550
0340
0550
0330
0450
ENDCHAR
STARTCHAR eth
ENCODING 240
SWIDTH 669 0
DWIDTH 6 0
BBX 8 8 -1 -1
BITMAP
00043000
00262300
00346430
14344441
04567461
00305410
00336100
00001000
ENDCHAR
STARTCHAR ntilde
ENCODING 241
SWIDTH 598 0
DWIDTH 5 0
BBX 6 9 0 0
BITMAP
026640
045430
151430
434331
555650
341730
555550
334160
451580
ENDCHAR
STARTCHAR ograve
ENCODING 242
SWIDTH 612 0
DWIDTH 6 0
BBX 6 10 0 -1
BITMAP
015000
003300
134110
303380
466670
321430
550442
445462
555372
010000
ENDCHAR
STARTCHAR oacute
ENCODING 243
SWIDTH 612 0
DWIDTH 6 0
BBX 6 10 0 -1
BITMAP
000410
003410
134210
303380
466670
321430
550442
445462
555372
010000
ENDCHAR
STARTCHAR ocircumflex
ENCODING 244
SWIDTH 612 0
DWIDTH 6 0
BBX 6 10 0 -1
BITMAP
005600
034420
144310
303380
466670
321430
550442
445462
555372
010000
ENDCHAR
STARTCHAR otilde
ENCODING 245
SWIDTH 612 0
DWIDTH 6 0
BBX 6 10 0 -1
BITMAP
016650
045430
153410
303380
466670
321430
550442
445462
555372
010000
ENDCHAR
STARTCHAR odieresis
ENCODING 246
SWIDTH 612 0
DWIDTH 6 0
BBX 6 10 0 -1
BITMAP
011100
045430
154310
303380
466670
321430
550442
445462
555372
010000
ENDCHAR
STARTCHAR divide
ENCODING 247
SWIDTH 457 0
DWIDTH 4 0
BBX 4 6 0 0
BITMAP
0230
0440
4354
4344
0440
0230
ENDCHAR
STARTCHAR oslash
ENCODING 248
SWIDTH 612 0
DWIDTH 6 0
BBX 6 8 0 -1
BITMAP
133110
303540
468470
325440
563742
436562
617372
130000
ENDCHAR
STARTCHAR ugrave
ENCODING 249
SWIDTH 583 0
DWIDTH 5 0
BBX 5 10 0 -1
BITMAP
024000
015100
132220
403340
541540
330330
550550
345470
555580
120000
ENDCHAR
STARTCHAR uacute
ENCODING 250
SWIDTH 583 0
DWIDTH 5 0
BBX 5 10 0 -1
BITMAP
001400
004400
132220
403340
541540
330330
550550
345470
555580
120000
ENDCHAR
STARTCHAR ucircumflex
ENCODING 251
SWIDTH 583 0
DWIDTH 5 0
BBX 5 10 0 -1
BITMAP
026300
046400
151420
403340
541540
330330
550550
345470
555580
120000
ENDCHAR
STARTCHAR udieresis
ENCODING 252
SWIDTH 583 0
DWIDTH 5 0
BBX 5 10 0 -1
BITMAP
010100
046410
151520
403340
541540
330330
550550
345470
555580
120000
ENDCHAR
STARTCHAR yacute
ENCODING 253
SWIDTH 484 0
DWIDTH 4 0
BBX 6 8 -1 0
BITMAP
000320
002430
144334
044732
024340
005330
004300
014300
ENDCHAR
STARTCHAR thorn
ENCODING 254
SWIDTH 520 0
DWIDTH 5 0
BBX 5 8 0 -1
BITMAP
120000
463000
733430
345540
546230
333200
441000
010000
ENDCHAR
STARTCHAR ydieresis
ENCODING 255
SWIDTH 484 0
DWIDTH 4 0
BBX 6 9 -1 0
BITMAP
001110
034440
013130
144134
044732
024340
005330
004300
014300
ENDCHAR
STARTCHAR Amacron
ENCODING 256
SWIDTH 507 0
DWIDTH 5 0
BBX 5 8 0 0
BITMAP
053300
044100
035200
253300
307400
547440
345350
550540
ENDCHAR
STARTCHAR amacron
ENCODING 257
SWIDTH 507 0
DWIDTH 5 0
BBX 5 8 0 0
BITMAP
053300
044100
035200
253300
307400
547440
345350
550540
ENDCHAR
STARTCHAR Abreve
ENCODING 258
SWIDTH 507 0
DWIDTH 5 0
BBX 5 9 0 0
BITMAP
153400
075500
044000
035200
253300
307400
547440
345350
550540
ENDCHAR
STARTCHAR abreve
ENCODING 259
SWIDTH 507 0
DWIDTH 5 0
BBX 5 9 0 0
BITMAP
153400
075500
044000
035200
253300
307400
547440
345350
550540
ENDCHAR
STARTCHAR Aogonek
ENCODING 260
SWIDTH 507 0
DWIDTH 5 0
BBX 5 9 0 -2
BITMAP
021000
035200
253300
307400
547440
345350
550540
001630
000440
ENDCHAR
STARTCHAR aogonek
ENCODING 261
SWIDTH 507 0
DWIDTH 5 0
BBX 5 9 0 -2
BITMAP
021000
035200
253300
307400
547440
345350
550540
001630
000440
ENDCHAR
STARTCHAR Cacute
ENCODING 262
SWIDTH 515 0
DWIDTH 5 0
BBX 5 10 0 -1
BITMAP
001400
004400
135100
303340
466320
321000
550000
445330
565330
010000
ENDCHAR
STARTCHAR cacute
ENCODING 263
SWIDTH 515 0
DWIDTH 5 0
BBX 5 10 0 -1
BITMAP
001400
004400
135100
303340
466320
321000
550000
445330
565330
010000
ENDCHAR
STARTCHAR Ccircumflex
ENCODING 264
SWIDTH 515 0
DWIDTH 5 0
BBX 5 10 0 -1
BITMAP
005600
044420
144300
303340
466320
321000
550000
445330
565330
010000
ENDCHAR
STARTCHAR ccircumflex
ENCODING 265
SWIDTH 515 0
DWIDTH 5 0
BBX 5 10 0 -1
BITMAP
005600
044420
144300
303340
466320
321000
550000
445330
565330
010000
ENDCHAR
STARTCHAR Cdotaccent
ENCODING 266
SWIDTH 515 0
DWIDTH 5 0
BBX 5 10 0 -1
BITMAP
001000
004300
135100
303340
466320
321000
550000
445330
565330
010000
ENDCHAR
STARTCHAR cdotaccent
ENCODING 267
SWIDTH 515 0
DWIDTH 5 0
BBX 5 10 0 -1
BITMAP
001000
004300
135100
303340
466320
321000
550000
445330
565330
010000
ENDCHAR
STARTCHAR Ccaron
ENCODING 268
SWIDTH 515 0
DWIDTH 5 0
BBX 5 10 0 -1
BITMAP
044510
014500
135100
303340
466320
321000
550000
445330
565330
010000
ENDCHAR
STARTCHAR ccaron
ENCODING 269
SWIDTH 515 0
DWIDTH 5 0
BBX 5 10 0 -1
BITMAP
044510
014500
135100
303340
466320
321000
550000
445330
565330
010000
ENDCHAR
STARTCHAR Dcaron
ENCODING 270
SWIDTH 520 0
DWIDTH 5 0
BBX 5 10 0 -1
BITMAP
055400
035200
144000
443200
554510
342340
556450
342500
464000
011000
ENDCHAR
STARTCHAR dcaron
ENCODING 271
SWIDTH 520 0
DWIDTH 5 0
BBX 5 10 0 -1
BITMAP
055400
035200
144000
443200
554510
342340
556450
342500
464000
011000
ENDCHAR
STARTCHAR Dcroat
ENCODING 272
SWIDTH 669 0
DWIDTH 6 0
BBX 8 8 -1 -1
BITMAP
00043000
00262300
00346430
14344441
04567461
00305410
00336100
00001000
ENDCHAR
STARTCHAR dcroat
ENCODING 273
SWIDTH 669 0
DWIDTH 6 0
BBX 8 8 -1 -1
BITMAP
00043000
00262300
00346430
14344441
04567461
00305410
00336100
00001000
ENDCHAR
STARTCHAR Emacron
ENCODING 274
SWIDTH 490 0
DWIDTH 4 0
BBX 5 8 0 0
BITMAP
053300
155310
434130
553310
333300
553300
345410
455420
ENDCHAR
STARTCHAR emacron
ENCODING 275
SWIDTH 490 0
DWIDTH 4 0
BBX 5 8 0 0
BITMAP
053300
155310
434130
553310
333300
553300
345410
455420
ENDCHAR
STARTCHAR Ebreve
ENCODING 276
SWIDTH 490 0
DWIDTH 4 0
BBX 5 9 0 0
BITMAP
063400
056500
145310
434130
553310
333300
553300
345410
455420
ENDCHAR
STARTCHAR ebreve
ENCODING 277
SWIDTH 490 0
DWIDTH 4 0
BBX 5 9 0 0
BITMAP
063400
056500
145310
434130
553310
333300
553300
345410
455420
ENDCHAR
STARTCHAR Edotaccent
ENCODING 278
SWIDTH 490 0
DWIDTH 4 0
BBX 5 9 0 0
BITMAP
001000
044000
145210
434130
553310
333300
553300
345410
455420
ENDCHAR
STARTCHAR edotaccent
ENCODING 279
SWIDTH 490 0
DWIDTH 4 0
BBX 5 9 0 0
BITMAP
001000
044000
145210
434130
553310
333300
553300
345410
455420
ENDCHAR
STARTCHAR Eogonek
ENCODING 280
SWIDTH 490 0
DWIDTH 4 0
BBX 5 9 0 -2
BITMAP
133210
434130
553310
333300
553300
345410
455420
004500
001420
ENDCHAR
STARTCHAR eogonek
ENCODING 281
SWIDTH 490 0
DWIDTH 4 0
BBX 5 9 0 -2
BITMAP
133210
434130
553310
333300
553300
345410
455420
004500
001420
ENDCHAR
STARTCHAR Ecaron
ENCODING 282
SWIDTH 490 0
DWIDTH 4 0
BBX 5 9 0 0
BITMAP
055400
035200
135210
434130
553310
333300
553300
345410
455420
ENDCHAR
STARTCHAR ecaron
ENCODING 283
SWIDTH 490 0
DWIDTH 4 0
BBX 5 9 0 0
BITMAP
055400
035200
135210
434130
553310
333300
553300
345410
455420
ENDCHAR
STARTCHAR Gcircumflex
ENCODING 284
SWIDTH 557 0
DWIDTH 5 0
BBX 5 10 0 -1
BITMAP
015400
045400
144300
303340
466320
321430
550440
445540
565550
010000
ENDCHAR
STARTCHAR gcircumflex
ENCODING 285
SWIDTH 557 0
DWIDTH 5 0
BBX 5 10 0 -1
BITMAP
015400
045400
144300
303340
466320
321430
550440
445540
565550
010000
ENDCHAR
STARTCHAR Gbreve
ENCODING 286
SWIDTH 557 0
DWIDTH 5 0
BBX 5 10 0 -1
BITMAP
043510
046700
145200
303340
466320
321430
550440
445540
565550
010000
ENDCHAR
STARTCHAR gbreve
ENCODING 287
SWIDTH 557 0
DWIDTH 5 0
BBX 5 10 0 -1
BITMAP
043510
046700
145200
303340
466320
321430
550440
445540
565550
010000
ENDCHAR
STARTCHAR Gdotaccent
ENCODING 288
SWIDTH 557 0
DWIDTH 5 0
BBX 5 10 0 -1
BITMAP
001000
004300
135100
303340
466320
321430
550440
445540
565550
010000
ENDCHAR
STARTCHAR gdotaccent
ENCODING 289
SWIDTH 557 0
DWIDTH 5 0
BBX 5 10 0 -1
BITMAP
001000
004300
135100
303340
466320
321430
550440
445540
565550
010000
ENDCHAR
STARTCHAR Gcommaaccent
ENCODING 290
SWIDTH 557 0
DWIDTH 5 0
BBX 5 10 0 -3
BITMAP
133100
303340
466320
321430
550440
445540
565550
014100
034000
011000
ENDCHAR
STARTCHAR gcommaaccent
ENCODING 291
SWIDTH 557 0
DWIDTH 5 0
BBX 5 10 0 -3
BITMAP
133100
303340
466320
321430
550440
445540
565550
014100
034000
011000
ENDCHAR
STARTCHAR Hcircumflex
ENCODING 292
SWIDTH 611 0
DWIDTH 6 0
BBX 6 9 0 0
BITMAP
015500
045410
141430
431430
550550
330351
555613
345551
450550
ENDCHAR
STARTCHAR hcircumflex
ENCODING 293
SWIDTH 611 0
DWIDTH 6 0
BBX 6 9 0 0
BITMAP
015500
045410
141430
431430
550550
330351
555613
345551
450550
ENDCHAR
STARTCHAR Hbar
ENCODING 294
SWIDTH 706 0
DWIDTH 6 0
BBX 7 7 0 0
BITMAP
03103100
24444500
46514230
23545810
15735400
03644500
14433300
ENDCHAR
STARTCHAR hbar
ENCODING 295
SWIDTH 706 0
DWIDTH 6 0
BBX 7 7 0 0
BITMAP
03103100
24444500
46514230
23545810
15735400
03644500
14433300
ENDCHAR
STARTCHAR Itilde
ENCODING 296
SWIDTH 266 0
DWIDTH 2 0
BBX 5 9 -1 0
BITMAP
047520
334600
035100
043100
055000
034000
055000
033000
045000
ENDCHAR
STARTCHAR itilde
ENCODING 297
SWIDTH 266 0
DWIDTH 2 0
BBX 5 9 -1 0
BITMAP
047520
334600
035100
043100
055000
034000
055000
033000
045000
ENDCHAR
STARTCHAR Imacron
ENCODING 298
SWIDTH 266 0
DWIDTH 2 0
BBX 3 8 0 0
BITMAP
5330
3510
4310
5500
3400
5500
3300
4500
ENDCHAR
STARTCHAR imacron
ENCODING 299
SWIDTH 266 0
DWIDTH 2 0
BBX 3 8 0 0
BITMAP
5330
3510
4310
5500
3400
5500
3300
4500
ENDCHAR
STARTCHAR Ibreve
ENCODING 300
SWIDTH 266 0
DWIDTH 2 0
BBX 4 9 -1 0
BITMAP
1634
0655
0360
0431
0550
0340
0550
0330
0450
ENDCHAR
STARTCHAR ibreve
ENCODING 301
SWIDTH 266 0
DWIDTH 2 0
BBX 4 9 -1 0
BITMAP
1634
0655
0360
0431
0550
0340
0550
0330
0450
ENDCHAR
STARTCHAR Iogonek
ENCODING 302
SWIDTH 266 0
DWIDTH 2 0
BBX 3 10 0 -3
BITMAP
1300
4310
5500
3400
5500
3300
4500
4400
4610
0100
ENDCHAR
STARTCHAR iogonek
ENCODING 303
SWIDTH 266 0
DWIDTH 2 0
BBX 3 10 0 -3
BITMAP
1300
4310
5500
3400
5500
3300
4500
4400
4610
0100
ENDCHAR
STARTCHAR Idotaccent
ENCODING 304
SWIDTH 266 0
DWIDTH 2 0
BBX 3 9 0 0
BITMAP
0100
4400
2500
4310
5500
3400
5500
3300
4500
ENDCHAR
STARTCHAR dotlessi
ENCODING 305
SWIDTH 266 0
DWIDTH 2 0
BBX 3 7 0 0
BITMAP
1300
4310
5500
3400
5500
3300
4500
ENDCHAR
STARTCHAR IJ
ENCODING 306
SWIDTH 750 0
DWIDTH 7 0
BBX 7 8 0 -1
BITMAP
13000310
43102230
55003430
34122130
55535330
33156130
45032630
00003000
ENDCHAR
STARTCHAR ij
ENCODING 307
SWIDTH 749 0
DWIDTH 7 0
BBX 7 8 0 -1
BITMAP
13000310
43102230
55003430
34122130
55535330
33156130
45032630
00003000
ENDCHAR
STARTCHAR Jcircumflex
ENCODING 308
SWIDTH 484 0
DWIDTH 4 0
BBX 6 10 -1 -1
BITMAP
000470
001443
000341
000330
000550
021330
134550
043630
004360
001200
ENDCHAR
STARTCHAR jcircumflex
ENCODING 309
SWIDTH 482 0
DWIDTH 4 0
BBX 6 10 -1 -1
BITMAP
000470
001443
000341
000330
000550
021330
134550
043630
004360
001200
ENDCHAR
STARTCHAR Kcommaaccent
ENCODING 310
SWIDTH 541 0
DWIDTH 5 0
BBX 5 10 0 -3
BITMAP
130100
431440
555340
341500
556400
345230
450540
014000
044000
020000
ENDCHAR
STARTCHAR kcommaaccent
ENCODING 311
SWIDTH 541 0
DWIDTH 5 0
BBX 5 10 0 -3
BITMAP
130100
431440
555340
341500
556400
345230
450540
014000
044000
020000
ENDCHAR
STARTCHAR kgreenlandic
ENCODING 312
SWIDTH 541 0
DWIDTH 5 0
BBX 5 7 0 0
BITMAP
130100
431440
555340
341500
556400
345230
450540
ENDCHAR
STARTCHAR Lacute
ENCODING 313
SWIDTH 467 0
DWIDTH 4 0
BBX 5 9 0 0
BITMAP
014000
044000
150000
431000
550000
340000
550000
345320
455330
ENDCHAR
STARTCHAR lacute
ENCODING 314
SWIDTH 467 0
DWIDTH 4 0
BBX 5 9 0 0
BITMAP
014000
044000
150000
431000
550000
340000
550000
345320
455330
ENDCHAR
STARTCHAR Lcommaaccent
ENCODING 315
SWIDTH 467 0
DWIDTH 4 0
BBX 5 10 0 -3
BITMAP
130000
431000
550000
340000
550000
345320
455330
023000
053000
020000
ENDCHAR
STARTCHAR lcommaaccent
ENCODING 316
SWIDTH 467 0
DWIDTH 4 0
BBX 5 10 0 -3
BITMAP
130000
431000
550000
340000
550000
345320
455330
023000
053000
020000
ENDCHAR
STARTCHAR Lcaron
ENCODING 317
SWIDTH 467 0
DWIDTH 4 0
BBX 5 8 0 0
BITMAP
000200
133400
434200
550000
340000
550000
345320
455330
ENDCHAR
STARTCHAR lcaron
ENCODING 318
SWIDTH 467 0
DWIDTH 4 0
BBX 5 8 0 0
BITMAP
000200
133400
434200
550000
340000
550000
345320
455330
ENDCHAR
STARTCHAR Ldot
ENCODING 319
SWIDTH 611 0
DWIDTH 6 0
BBX 6 7 0 0
BITMAP
130000
431000
550000
340142
550031
345320
455330
ENDCHAR
STARTCHAR ldotaccent
ENCODING 320
SWIDTH 611 0
DWIDTH 6 0
BBX 6 7 0 0
BITMAP
130000
431000
550000
340142
550031
345320
455330
ENDCHAR
STARTCHAR Lslash
ENCODING 321
SWIDTH 505 0
DWIDTH 5 0
BBX 6 7 -1 0
BITMAP
003100
021300
033400
161530
173510
030733
033733
ENDCHAR
STARTCHAR lslash
ENCODING 322
SWIDTH 505 0
DWIDTH 5 0
BBX 6 7 -1 0
BITMAP
003100
021300
033400
161530
173510
030733
033733
ENDCHAR
STARTCHAR Nacute
ENCODING 323
SWIDTH 598 0
DWIDTH 5 0
BBX 6 9 0 0
BITMAP
000400
003400
132230
434331
555650
341730
555550
334160
451580
ENDCHAR
STARTCHAR nacute
ENCODING 324
SWIDTH 598 0
DWIDTH 5 0
BBX 6 9 0 0
BITMAP
000400
003400
132230
434331
555650
341730
555550
334160
451580
ENDCHAR
STARTCHAR Ncommaaccent
ENCODING 325
SWIDTH 598 0
DWIDTH 5 0
BBX 6 10 0 -3
BITMAP
131130
434331
555650
341730
555550
334160
451580
004100
034100
011000
ENDCHAR
STARTCHAR ncommaaccent
ENCODING 326
SWIDTH 598 0
DWIDTH 5 0
BBX 6 10 0 -3
BITMAP
131130
434331
555650
341730
555550
334160
451580
004100
034100
011000
ENDCHAR
STARTCHAR Ncaron
ENCODING 327
SWIDTH 598 0
DWIDTH 5 0
BBX 6 9 0 0
BITMAP
044510
014500
132230
434331
555650
341730
555550
334160
451580
ENDCHAR
STARTCHAR ncaron
ENCODING 328
SWIDTH 598 0
DWIDTH 5 0
BBX 6 9 0 0
BITMAP
044510
014500
132230
434331
555650
341730
555550
334160
451580
ENDCHAR
STARTCHAR napostrophe
ENCODING 329
SWIDTH 807 0
DWIDTH 7 0
BBX 7 7 0 0
BITMAP
12230230
34434330
41655550
00341630
00555550
00334250
00552570
ENDCHAR
STARTCHAR Eng
ENCODING 330
SWIDTH 595 0
DWIDTH 5 0
BBX 6 10 0 -3
BITMAP
131010
434451
555430
341850
556530
334170
451560
035570
134330
030000
ENDCHAR
STARTCHAR eng
ENCODING 331
SWIDTH 595 0
DWIDTH 5 0
BBX 6 10 0 -3
BITMAP
131010
434451
555430
341850
556530
334170
451560
035570
134330
030000
ENDCHAR
STARTCHAR Omacron
ENCODING 332
SWIDTH 612 0
DWIDTH 6 0
BBX 6 9 0 -1
BITMAP
034500
145310
303380
466670
321430
550442
445462
555372
010000
ENDCHAR
STARTCHAR omacron
ENCODING 333
SWIDTH 612 0
DWIDTH 6 0
BBX 6 9 0 -1
BITMAP
034500
145310
303380
466670
321430
550442
445462
555372
010000
ENDCHAR
STARTCHAR Obreve
ENCODING 334
SWIDTH 612 0
DWIDTH 6 0
BBX 6 10 0 -1
BITMAP
033420
036710
135310
303380
466670
321430
550442
445462
555372
010000
ENDCHAR
STARTCHAR obreve
ENCODING 335
SWIDTH 612 0
DWIDTH 6 0
BBX 6 10 0 -1
BITMAP
033420
036710
135310
303380
466670
321430
550442
445462
555372
010000
ENDCHAR
STARTCHAR Ohungarumlaut
ENCODING 336
SWIDTH 612 0
DWIDTH 6 0
BBX 6 10 0 -1
BITMAP
003340
014640
135310
303380
466670
321430
550442
445462
555372
010000
ENDCHAR
STARTCHAR ohungarumlaut
ENCODING 337
SWIDTH 612 0
DWIDTH 6 0
BBX 6 10 0 -1
BITMAP
003340
014640
135310
303380
466670
321430
550442
445462
555372
010000
ENDCHAR
STARTCHAR OE
ENCODING 338
SWIDTH 831 0
DWIDTH 7 0
BBX 8 8 0 -1
BITMAP
13323321
30336414
46667431
32133340
55054430
44546532
55558532
01000000
ENDCHAR
STARTCHAR oe
ENCODING 339
SWIDTH 831 0
DWIDTH 7 0
BBX 8 8 0 -1
BITMAP
13323321
30336414
46667431
32133340
55054430
44546532
55558532
01000000
ENDCHAR
STARTCHAR Racute
ENCODING 340
SWIDTH 532 0
DWIDTH 5 0
BBX 5 10 0 -1
BITMAP
001400
004400
043000
614420
564440
447440
554400
345330
440440
120100
ENDCHAR
STARTCHAR racute
ENCODING 341
SWIDTH 532 0
DWIDTH 5 0
BBX 5 10 0 -1
BITMAP
001400
004400
043000
614420
564440
447440
554400
345330
440440
120100
ENDCHAR
STARTCHAR Rcommaaccent
ENCODING 342
SWIDTH 532 0
DWIDTH 5 0
BBX 5 10 0 -3
BITMAP
041000
614420
564440
447440
554400
345330
440440
124100
044000
020000
ENDCHAR
STARTCHAR rcommaaccent
ENCODING 343
SWIDTH 532 0
DWIDTH 5 0
BBX 5 10 0 -3
BITMAP
041000
614420
564440
447440
554400
345330
440440
124100
044000
020000
ENDCHAR
STARTCHAR Rcaron
ENCODING 344
SWIDTH 532 0
DWIDTH 5 0
BBX 5 10 0 -1
BITMAP
055500
035300
043000
614420
564440
447440
554400
345330
440440
120100
ENDCHAR
STARTCHAR rcaron
ENCODING 345
SWIDTH 532 0
DWIDTH 5 0
BBX 5 10 0 -1
BITMAP
055500
035300
043000
614420
564440
447440
554400
345330
440440
120100
ENDCHAR
STARTCHAR Sacute
ENCODING 346
SWIDTH 442 0
DWIDTH 4 0
BBX 4 10 0 -1
BITMAP
0041
0341
1343
6445
4341
2540
0443
3534
4554
1000
ENDCHAR
STARTCHAR sacute
ENCODING 347
SWIDTH 442 0
DWIDTH 4 0
BBX 4 10 0 -1
BITMAP
0041
0341
1343
6445
4341
2540
0443
3534
4554
1000
ENDCHAR
STARTCHAR Scircumflex
ENCODING 348
SWIDTH 442 0
DWIDTH 4 0
BBX 4 10 0 -1
BITMAP
0470
3443
1453
6445
4341
2540
0443
3534
4554
1000
ENDCHAR
STARTCHAR scircumflex
ENCODING 349
SWIDTH 442 0
DWIDTH 4 0
BBX 4 10 0 -1
BITMAP
0470
3443
1453
6445
4341
2540
0443
3534
4554
1000
ENDCHAR
STARTCHAR Scedilla
ENCODING 350
SWIDTH 442 0
DWIDTH 4 0
BBX 4 9 0 -2
BITMAP
1233
6445
4341
2540
0443
3534
4564
1560
1330
ENDCHAR
STARTCHAR scedilla
ENCODING 351
SWIDTH 442 0
DWIDTH 4 0
BBX 4 9 0 -2
BITMAP
1233
6445
4341
2540
0443
3534
4564
1560
1330
ENDCHAR
STARTCHAR Scaron
ENCODING 352
SWIDTH 442 0
DWIDTH 4 0
BBX 4 10 0 -1
BITMAP
3453
0470
1343
6445
4341
2540
0443
3534
4554
1000
ENDCHAR
STARTCHAR scaron
ENCODING 353
SWIDTH 442 0
DWIDTH 4 0
BBX 4 10 0 -1
BITMAP
3453
0470
1343
6445
4341
2540
0443
3534
4554
1000
ENDCHAR
STARTCHAR Tcommaaccent
ENCODING 354
SWIDTH 453 0
DWIDTH 4 0
BBX 6 10 -1 -3
BITMAP
033330
130321
036630
005400
005500
003300
005500
003200
024100
002000
ENDCHAR
STARTCHAR tcommaaccent
ENCODING 355
SWIDTH 453 0
DWIDTH 4 0
BBX 6 10 -1 -3
BITMAP
033330
130321
036630
005400
005500
003300
005500
003200
024100
002000
ENDCHAR
STARTCHAR Tcaron
ENCODING 356
SWIDTH 453 0
DWIDTH 4 0
BBX 6 9 -1 0
BITMAP
025440
004610
034530
130321
036630
005400
005500
003300
005500
ENDCHAR
STARTCHAR tcaron
ENCODING 357
SWIDTH 453 0
DWIDTH 4 0
BBX 6 9 -1 0
BITMAP
025440
004610
034530
130321
036630
005400
005500
003300
005500
ENDCHAR
STARTCHAR Tbar
ENCODING 358
SWIDTH 455 0
DWIDTH 4 0
BBX 5 8 0 -1
BITMAP
332200
314320
356300
276200
443400
033000
044000
011000
ENDCHAR
STARTCHAR tbar
ENCODING 359
SWIDTH 455 0
DWIDTH 4 0
BBX 5 8 0 -1
BITMAP
332200
314320
356300
276200
443400
033000
044000
011000
ENDCHAR
STARTCHAR Utilde
ENCODING 360
SWIDTH 583 0
DWIDTH 5 0
BBX 5 10 0 -1
BITMAP
026640
045430
151520
403340
541540
330330
550550
345470
555580
120000
ENDCHAR
STARTCHAR utilde
ENCODING 361
SWIDTH 583 0
DWIDTH 5 0
BBX 5 10 0 -1
BITMAP
026640
045430
151520
403340
541540
330330
550550
345470
555580
120000
ENDCHAR
STARTCHAR Umacron
ENCODING 362
SWIDTH 583 0
DWIDTH 5 0
BBX 5 9 0 -1
BITMAP
034400
142420
403340
541540
330330
550550
345470
555580
120000
ENDCHAR
STARTCHAR umacron
ENCODING 363
SWIDTH 583 0
DWIDTH 5 0
BBX 5 9 0 -1
BITMAP
034400
142420
403340
541540
330330
550550
345470
555580
120000
ENDCHAR
STARTCHAR Ubreve
ENCODING 364
SWIDTH 583 0
DWIDTH 5 0
BBX 5 10 0 -1
BITMAP
043610
046600
143420
403340
541540
330330
550550
345470
555580
120000
ENDCHAR
STARTCHAR ubreve
ENCODING 365
SWIDTH 583 0
DWIDTH 5 0
BBX 5 10 0 -1
BITMAP
043610
046600
143420
403340
541540
330330
550550
345470
555580
120000
ENDCHAR
STARTCHAR Uring
ENCODING 366
SWIDTH 583 0
DWIDTH 5 0
BBX 5 11 0 -1
BITMAP
003200
045300
045600
141320
403340
541540
330330
550550
345470
555580
120000
ENDCHAR
STARTCHAR uring
ENCODING 367
SWIDTH 583 0
DWIDTH 5 0
BBX 5 11 0 -1
BITMAP
003200
045300
045600
141320
403340
541540
330330
550550
345470
555580
120000
ENDCHAR
STARTCHAR Uhungarumlaut
ENCODING 368
SWIDTH 583 0
DWIDTH 5 0
BBX 5 10 0 -1
BITMAP
004430
034630
141520
403340
541540
330330
550550
345470
555580
120000
ENDCHAR
STARTCHAR uhungarumlaut
ENCODING 369
SWIDTH 583 0
DWIDTH 5 0
BBX 5 10 0 -1
BITMAP
004430
034630
141520
403340
541540
330330
550550
345470
555580
120000
ENDCHAR
STARTCHAR Uogonek
ENCODING 370
SWIDTH 583 0
DWIDTH 5 0
BBX 5 10 0 -3
BITMAP
130220
403340
541540
330330
550550
345470
555580
120440
000560
000010
ENDCHAR
STARTCHAR uogonek
ENCODING 371
SWIDTH 583 0
DWIDTH 5 0
BBX 5 10 0 -3
BITMAP
130220
403340
541540
330330
550550
345470
555580
120440
000560
000010
ENDCHAR
STARTCHAR Wcircumflex
ENCODING 372
SWIDTH 735 0
DWIDTH 7 0
BBX 7 9 0 -1
BITMAP
00371000
01553100
54453340
44727230
53456310
33666500
15173400
07454400
01101100
ENDCHAR
STARTCHAR wcircumflex
ENCODING 373
SWIDTH 735 0
DWIDTH 7 0
BBX 7 9 0 -1
BITMAP
00371000
01553100
54453340
44727230
53456310
33666500
15173400
07454400
01101100
ENDCHAR
STARTCHAR Ycircumflex
ENCODING 374
SWIDTH 484 0
DWIDTH 4 0
BBX 6 9 -1 0
BITMAP
004700
024430
002120
144134
044732
024340
005330
004300
014300
ENDCHAR
STARTCHAR ycircumflex
ENCODING 375
SWIDTH 484 0
DWIDTH 4 0
BBX 6 9 -1 0
BITMAP
004700
024430
002120
144134
044732
024340
005330
004300
014300
ENDCHAR
STARTCHAR Ydieresis
ENCODING 376
SWIDTH 484 0
DWIDTH 4 0
BBX 6 9 -1 0
BITMAP
001110
034440
013130
144134
044732
024340
005330
004300
014300
ENDCHAR
STARTCHAR Zacute
ENCODING 377
SWIDTH 458 0
DWIDTH 4 0
BBX 5 9 0 0
BITMAP
003200
024100
124200
314510
256600
042200
254000
426300
554400
ENDCHAR
STARTCHAR zacute
ENCODING 378
SWIDTH 458 0
DWIDTH 4 0
BBX 5 9 0 0
BITMAP
003200
024100
124200
314510
256600
042200
254000
426300
554400
ENDCHAR
STARTCHAR Zdotaccent
ENCODING 379
SWIDTH 458 0
DWIDTH 4 0
BBX 5 9 0 0
BITMAP
001000
044000
134200
314510
256600
042200
254000
426300
554400
ENDCHAR
STARTCHAR zdotaccent
ENCODING 380
SWIDTH 458 0
DWIDTH 4 0
BBX 5 9 0 0
BITMAP
001000
044000
134200
314510
256600
042200
254000
426300
554400
ENDCHAR
STARTCHAR Zcaron
ENCODING 381
SWIDTH 458 0
DWIDTH 4 0
BBX 5 9 0 0
BITMAP
244400
046000
134200
314510
256600
042200
254000
426300
554400
ENDCHAR
STARTCHAR zcaron
ENCODING 382
SWIDTH 458 0
DWIDTH 4 0
BBX 5 9 0 0
BITMAP
244400
046000
134200
314510
256600
042200
254000
426300
554400
ENDCHAR
STARTCHAR AEacute
ENCODING 508
SWIDTH 797 0
DWIDTH 7 0
BBX 9 9 -1 0
BITMAP
0000040000
0000340000
0000443300
0005534220
0042753300
0044443300
0335653200
0344445400
1440554500
ENDCHAR
STARTCHAR aeacute
ENCODING 509
SWIDTH 797 0
DWIDTH 7 0
BBX 9 9 -1 0
BITMAP
0000040000
0000340000
0000443300
0005534220
0042753300
0044443300
0335653200
0344445400
1440554500
ENDCHAR
STARTCHAR Oslashacute
ENCODING 510
SWIDTH 612 0
DWIDTH 6 0
BBX 6 10 0 -1
BITMAP
000410
003400
134210
303540
468470
325440
563742
436562
617372
130000
ENDCHAR
STARTCHAR oslashacute
ENCODING 511
SWIDTH 612 0
DWIDTH 6 0
BBX 6 10 0 -1
BITMAP
000410
003400
134210
303540
468470
325440
563742
436562
617372
130000
ENDCHAR
STARTCHAR dotlessj
ENCODING 567
SWIDTH 482 0
DWIDTH 4 0
BBX 5 8 -1 -1
BITMAP
000130
000330
000550
021330
134550
043630
004360
001200
ENDCHAR
STARTCHAR circumflex
ENCODING 710
SWIDTH 308 0
DWIDTH 3 0
BBX 3 3 0 6
BITMAP
3610
4530
2110
ENDCHAR
STARTCHAR caron
ENCODING 711
SWIDTH 310 0
DWIDTH 3 0
BBX 3 3 0 6
BITMAP
5540
3520
0200
ENDCHAR
STARTCHAR breve
ENCODING 728
SWIDTH 333 0
DWIDTH 3 0
BBX 3 3 0 6
BITMAP
5450
4660
1210
ENDCHAR
STARTCHAR dotaccent
ENCODING 729
SWIDTH 166 0
DWIDTH 2 0
BBX 2 3 0 6
BITMAP
10
43
21
ENDCHAR
STARTCHAR ring
ENCODING 730
SWIDTH 309 0
DWIDTH 3 0
BBX 3 4 0 6
BITMAP
1310
4530
6650
1110
ENDCHAR
STARTCHAR ogonek
ENCODING 731
SWIDTH 226 0
DWIDTH 2 0
BBX 2 4 0 -3
BITMAP
32
44
56
01
ENDCHAR
STARTCHAR tilde
ENCODING 732
SWIDTH 410 0
DWIDTH 4 0
BBX 4 3 0 6
BITMAP
3654
4552
2130
ENDCHAR
STARTCHAR hungarumlaut
ENCODING 733
SWIDTH 361 0
DWIDTH 3 0
BBX 4 3 0 6
BITMAP
2341
4641
2110
ENDCHAR
STARTCHAR uni0312
ENCODING 786
SWIDTH 202 0
DWIDTH 2 0
BBX 2 3 0 4
BITMAP
12
34
41
ENDCHAR
STARTCHAR uni0315
ENCODING 789
SWIDTH 202 0
DWIDTH 2 0
BBX 2 3 0 4
BITMAP
12
34
41
ENDCHAR
STARTCHAR uni0326
ENCODING 806
SWIDTH 201 0
DWIDTH 2 0
BBX 2 3 0 -3
BITMAP
23
43
20
ENDCHAR
STARTCHAR Wgrave
ENCODING 7808
SWIDTH 735 0
DWIDTH 7 0
BBX 7 9 0 -1
BITMAP
00330000
00330100
54262340
44727230
53456310
33666500
15173400
07454400
01101100
ENDCHAR
STARTCHAR wgrave
ENCODING 7809
SWIDTH 735 0
DWIDTH 7 0
BBX 7 9 0 -1
BITMAP
00330000
00330100
54262340
44727230
53456310
33666500
15173400
07454400
01101100
ENDCHAR
STARTCHAR Wacute
ENCODING 7810
SWIDTH 735 0
DWIDTH 7 0
BBX 7 9 0 -1
BITMAP
00023000
00053100
54262340
44727230
53456310
33666500
15173400
07454400
01101100
ENDCHAR
STARTCHAR wacute
ENCODING 7811
SWIDTH 735 0
DWIDTH 7 0
BBX 7 9 0 -1
BITMAP
00023000
00053100
54262340
44727230
53456310
33666500
15173400
07454400
01101100
ENDCHAR
STARTCHAR Wdieresis
ENCODING 7812
SWIDTH 735 0
DWIDTH 7 0
BBX 7 9 0 -1
BITMAP
00101000
02465100
54554340
44727230
53456310
33666500
15173400
07454400
01101100
ENDCHAR
STARTCHAR wdieresis
ENCODING 7813
SWIDTH 735 0
DWIDTH 7 0
BBX 7 9 0 -1
BITMAP
00101000
02465100
54554340
44727230
53456310
33666500
15173400
07454400
01101100
ENDCHAR
STARTCHAR Ygrave
ENCODING 7922
SWIDTH 484 0
DWIDTH 4 0
BBX 6 9 -1 0
BITMAP
004200
003300
001110
144134
044732
024340
005330
004300
014300
ENDCHAR
STARTCHAR ygrave
ENCODING 7923
SWIDTH 484 0
DWIDTH 4 0
BBX 6 9 -1 0
BITMAP
004200
003300
001110
144134
044732
024340
005330
004300
014300
ENDCHAR
STARTCHAR endash
ENCODING 8211
SWIDTH 591 0
DWIDTH 5 0
BBX 5 2 0 2
BITMAP
435540
434440
ENDCHAR
STARTCHAR emdash
ENCODING 8212
SWIDTH 726 0
DWIDTH 7 0
BBX 7 2 0 2
BITMAP
43535320
33434320
ENDCHAR
STARTCHAR quoteleft
ENCODING 8216
SWIDTH 291 0
DWIDTH 3 0
BBX 3 4 0 3
BITMAP
0420
3230
4410
5400
ENDCHAR
STARTCHAR quoteright
ENCODING 8217
SWIDTH 291 0
DWIDTH 3 0
BBX 3 4 0 3
BITMAP
0420
3230
4410
5400
ENDCHAR
STARTCHAR quotesinglbase
ENCODING 8218
SWIDTH 228 0
DWIDTH 2 0
BBX 3 4 -1 -2
BITMAP
0110
0440
2330
0200
ENDCHAR
STARTCHAR quotedblleft
ENCODING 8220
SWIDTH 532 0
DWIDTH 5 0
BBX 5 4 0 3
BITMAP
042430
325430
445320
544500
ENDCHAR
STARTCHAR quotedblright
ENCODING 8221
SWIDTH 532 0
DWIDTH 5 0
BBX 5 4 0 3
BITMAP
042430
325430
445320
544500
ENDCHAR
STARTCHAR quotedblbase
ENCODING 8222
SWIDTH 448 0
DWIDTH 4 0
BBX 5 4 -1 -2
BITMAP
011110
044440
235320
020200
ENDCHAR
STARTCHAR dagger
ENCODING 8224
SWIDTH 453 0
DWIDTH 4 0
BBX 4 8 0 -1
BITMAP
0450
3543
4654
1431
0550
0330
0430
0330
ENDCHAR
STARTCHAR daggerdbl
ENCODING 8225
SWIDTH 462 0
DWIDTH 4 0
BBX 4 8 0 -1
BITMAP
0450
3533
4654
1431
2653
3344
2442
0330
ENDCHAR
STARTCHAR bullet
ENCODING 8226
SWIDTH 275 0
DWIDTH 2 0
BBX 2 2 0 2
BITMAP
35
23
ENDCHAR
STARTCHAR ellipsis
ENCODING 8230
SWIDTH 605 0
DWIDTH 5 0
BBX 6 3 0 -1
BITMAP
223231
434533
101010
ENDCHAR
STARTCHAR perthousand
ENCODING 8240
SWIDTH 1249 0
DWIDTH 11 0
BBX 11 7 0 0
BITMAP
121000000000
445242000000
234440000000
634433213220
122445353560
000345424630
001334445450
ENDCHAR
STARTCHAR guilsinglleft
ENCODING 8249
SWIDTH 359 0
DWIDTH 3 0
BBX 3 5 0 1
BITMAP
0010
1340
4330
5340
0340
ENDCHAR
STARTCHAR guilsinglright
ENCODING 8250
SWIDTH 359 0
DWIDTH 3 0
BBX 3 5 0 1
BITMAP
0100
4320
2440
3260
3400
ENDCHAR
STARTCHAR fraction
ENCODING 8260
SWIDTH 266 0
DWIDTH 2 0
BBX 3 6 0 0
BITMAP
0430
2410
3300
4400
3300
4200
ENDCHAR
STARTCHAR Euro
ENCODING 8364
SWIDTH 690 0
DWIDTH 6 0
BBX 6 8 0 -1
BITMAP
003310
003145
148633
251300
463300
352644
036444
002000
ENDCHAR
STARTCHAR partialdiff
ENCODING 8706
SWIDTH 519 0
DWIDTH 5 0
BBX 6 8 -1 -1
BITMAP
000310
002240
000460
004440
144642
064514
024264
000200
ENDCHAR
STARTCHAR minus
ENCODING 8722
SWIDTH 467 0
DWIDTH 4 0
BBX 4 2 0 2
BITMAP
4354
4344
ENDCHAR
STARTCHAR fi
ENCODING 64257
SWIDTH 741 0
DWIDTH 7 0
BBX 7 7 0 0
BITMAP
13321310
43417030
55335330
33333030
55334330
34003030
45003330
ENDCHAR
STARTCHAR fl
ENCODING 64258
SWIDTH 942 0
DWIDTH 8 0
BBX 9 7 0 0
BITMAP
1332131000
4341703000
5533533000
3333303000
5533433000
3400307330
4500337340
ENDCHAR
STARTCHAR .notdef
ENCODING -1
SWIDTH 200 0
DWIDTH 2 0
BBX 1 1 0 0
BITMAP
00
ENDCHAR
STARTCHAR .null
ENCODING -1
SWIDTH 0 0
DWIDTH 0 0
BBX 1 1 0 0
BITMAP
00
ENDCHAR
STARTCHAR nonmarkingreturn
ENCODING -1
SWIDTH 200 0
DWIDTH 2 0
BBX 1 1 0 0
BITMAP
00
ENDCHAR
ENDFONT
